<svg fill="none" height="512" viewBox="0 0 512 512" width="512" xmlns="http://www.w3.org/2000/svg"><circle cx="256" cy="256" fill="#f2efe6" r="256"/><path d="m259.005 81c1.85 2.7778 4.624 5.8642 8.323 9.2593 3.39 3.395 6.935 6.3271 10.634 8.7962 3.39 2.1605 6.01 3.2405 7.86 3.2405h.924l-20.343 114.815 9.247 3.704 67.041-95.371c0 .926 1.695 1.698 5.086 2.315 3.082.926 6.473 1.698 10.171 2.315 3.699.617 6.628.926 8.785.926 3.391 0 6.781-.463 10.172-1.389l4.623 4.63c-.616 1.543-.924 3.086-.924 4.629v5.556c0 4.321.77 9.413 2.311 15.278 1.542 6.173 2.62 9.259 3.237 9.259l-95.244 67.13 4.161 9.259 114.663-20.833-.463 1.388c0 1.852 1.388 4.476 4.162 7.871 2.466 3.703 5.394 7.253 8.784 10.648 3.391 3.704 6.319 6.327 8.785 7.87v6.482c-2.466 1.852-5.394 4.475-8.785 7.87-3.39 3.395-6.318 6.945-8.784 10.648-2.774 3.704-4.162 6.482-4.162 8.334l.463 1.389-114.663-20.834-3.699 9.722 95.244 66.667c-.924 0-2.003 3.087-3.236 9.259-1.541 6.482-2.312 12.192-2.312 17.13v4.63c0 1.543.308 2.777.925 3.703l-4.624 4.63c-3.39-.926-6.781-1.389-10.171-1.389-2.466 0-5.549.309-9.248.926-3.698.617-7.089 1.389-10.171 2.315-3.391 1.234-5.086 2.16-5.086 2.778l-66.579-95.834-9.709 4.167 20.343 114.815-.924-.463c-1.85 0-4.624 1.234-8.323 3.703-3.698 2.778-7.243 5.865-10.634 9.26-3.699 3.395-6.319 6.327-7.86 8.796h-6.473c-.924-1.852-3.082-4.475-6.473-7.87-3.698-3.395-7.397-6.636-11.096-9.723-4.007-2.777-6.935-4.166-8.785-4.166l-1.387.463 20.344-114.815-9.247-4.167-66.579 95.834c-.616-1.235-3.699-2.624-9.247-4.167-5.856-1.235-10.942-1.852-15.258-1.852-3.698 0-7.089.463-10.171 1.389l-4.624-4.63c.308-.926.617-2.16.925-3.703 0-1.235 0-2.778 0-4.63 0-2.469-.154-5.864-.462-10.185-.617-4.013-1.387-7.716-2.312-11.111s-1.85-5.093-2.774-5.093l95.244-66.667-3.236-9.259-115.126 20.371v-1.389c0-1.852-1.233-4.784-3.6987-8.797-2.7741-3.703-5.8564-7.253-9.247-10.648s-6.1647-5.71-8.3223-6.944v-6.482c2.1576-1.234 4.9317-3.703 8.3223-7.407s6.4729-7.408 9.247-11.111c2.4657-3.704 3.6987-6.482 3.6987-8.334v-1.388l115.126 20.833 3.698-9.259-95.244-67.13c.617 0 1.387-1.698 2.312-5.093.925-3.086 1.695-6.635 2.312-10.648.616-3.703.924-6.636.924-8.796 0-1.852 0-3.704 0-5.556-.308-1.543-.616-3.086-.924-4.629l4.623-4.63c3.082.926 6.473 1.389 10.172 1.389 4.007 0 9.093-.772 15.257-2.315 5.857-1.234 8.785-2.315 8.785-3.241l67.041 95.371 8.785-3.704-20.344-114.815h.925c1.849 0 4.778-1.389 8.785-4.1664 3.698-2.7778 7.397-5.7099 11.096-8.7963 3.391-3.3951 5.702-6.1728 6.935-8.3333z" fill="#000"/></svg>